<svg width="200" height="200" xmlns="http://www.w3.org/2000/svg">
  <g fill="none" fill-rule="evenodd">
    <path fill="#61DAFB" d="M100,50 C77.9086127,50 60,67.9086127 60,90 C60,112.091387 77.9086127,130 100,130 C122.091387,130 140,112.091387 140,90 C140,67.9086127 122.091387,50 100,50 Z M100,40 C127.614237,40 150,62.3857625 150,90 C150,117.614237 127.614237,140 100,140 C72.3857625,140 50,117.614237 50,90 C50,62.3857625 72.3857625,40 100,40 Z"/>
    <circle fill="#61DAFB" cx="100" cy="90" r="15"/>
    <path fill="#61DAFB" d="M64.3923048,64.3923048 C58.4621325,70.3224771 54.6753002,77.9789707 54.6753002,86.3245553 C54.6753002,94.6701399 58.4621325,102.326633 64.3923048,108.256806 L91.743194,80.9059168 L64.3923048,64.3923048 Z M135.607695,64.3923048 L108.256806,80.9059168 L135.607695,108.256806 C141.537868,102.326633 145.3247,94.6701399 145.3247,86.3245553 C145.3247,77.9789707 141.537868,70.3224771 135.607695,64.3923048 Z M64.3923048,135.607695 L80.9059168,108.256806 L64.3923048,91.743194 C58.4621325,97.6733663 54.6753002,105.32986 54.6753002,113.675444 C54.6753002,122.021029 58.4621325,129.677522 64.3923048,135.607695 Z M135.607695,135.607695 C141.537868,129.677522 145.3247,122.021029 145.3247,113.675444 C145.3247,105.32986 141.537868,97.6733663 135.607695,91.743194 L119.094083,108.256806 L135.607695,135.607695 Z"/>
    <text x="60" y="170" font-family="Arial" font-size="30" fill="#007ACC">TS</text>
  </g>
</svg>
